<?xml version="1.0" standalone="no"?>
<!DOCTYPE svg PUBLIC "-//W3C//DTD SVG 20010904//EN"
 "http://www.w3.org/TR/2001/REC-SVG-20010904/DTD/svg10.dtd">
<svg version="1.0" xmlns="http://www.w3.org/2000/svg"
 width="200.000000pt" height="200.000000pt" viewBox="0 0 200.000000 200.000000"
 preserveAspectRatio="xMidYMid meet">

<g transform="translate(0.000000,200.000000) scale(0.100000,-0.100000)"
fill="#000000" stroke="none">
<path d="M556 1978 c-13 -17 -16 -51 -16 -149 l0 -126 -42 -16 c-24 -9 -132
-48 -240 -86 -225 -80 -238 -86 -238 -108 0 -22 488 -1394 502 -1410 6 -7 19
-13 30 -13 11 0 234 76 496 170 262 93 483 170 491 172 10 2 44 -60 105 -190
114 -241 124 -249 242 -193 65 30 94 61 94 97 0 12 -31 90 -70 173 -70 151
-70 151 -50 171 20 20 20 34 20 758 0 703 -1 740 -18 755 -17 15 -77 17 -655
17 l-636 0 -15 -22z m1234 -735 c0 -402 -4 -663 -9 -657 -5 5 -41 78 -80 163
-57 121 -87 172 -143 242 -80 99 -110 117 -162 95 -55 -23 -61 -55 -36 -186
17 -88 33 -137 76 -228 30 -63 54 -119 54 -124 0 -4 -192 -7 -427 -6 l-428 3
-3 683 -2 682 580 0 580 0 0 -667z m-1248 -203 c2 -442 6 -562 16 -572 10 -10
102 -14 407 -18 l393 -5 -379 -135 c-209 -74 -385 -135 -391 -135 -5 0 -100
252 -209 560 -110 308 -212 597 -229 641 l-29 82 197 70 c108 39 203 71 209
71 10 1 13 -125 15 -559z m959 -122 l20 -27 -30 -15 c-33 -18 -33 -18 -46 54
-4 19 -9 44 -11 55 -4 16 1 13 21 -10 14 -16 35 -42 46 -57z m214 -410 c77
-166 148 -319 157 -340 l17 -38 -40 -21 c-23 -11 -42 -19 -44 -17 -8 9 -317
680 -314 682 11 9 65 35 74 35 6 1 73 -135 150 -301z"/>
<path d="M826 1708 c-13 -19 -14 -25 -2 -43 13 -19 23 -20 381 -23 332 -2 370
-1 387 14 23 21 23 36 0 57 -17 15 -58 17 -385 17 -366 0 -366 0 -381 -22z"/>
<path d="M1103 1343 c-21 -8 -16 -61 6 -73 12 -6 109 -10 245 -10 l226 0 15
24 c13 19 14 29 5 45 -10 20 -18 21 -248 20 -130 0 -243 -3 -249 -6z"/>
<path d="M827 963 c-4 -3 -7 -19 -7 -35 0 -21 6 -31 26 -38 27 -11 364 -14
402 -4 26 8 39 48 22 69 -10 12 -49 15 -225 15 -116 0 -215 -3 -218 -7z"/>
</g>
</svg>
