<?xml version="1.0" standalone="no"?>
<!DOCTYPE svg PUBLIC "-//W3C//DTD SVG 20010904//EN"
 "http://www.w3.org/TR/2001/REC-SVG-20010904/DTD/svg10.dtd">
<svg version="1.0" xmlns="http://www.w3.org/2000/svg"
 width="356.000000pt" height="356.000000pt" viewBox="0 0 356.000000 356.000000"
 preserveAspectRatio="xMidYMid meet">

<g transform="translate(0.000000,356.000000) scale(0.100000,-0.100000)"
fill="#000000" stroke="none">
<path d="M1990 2941 l0 -420 38 -5 c193 -28 309 -74 425 -171 273 -226 344
-628 165 -933 -48 -83 -189 -221 -271 -267 -87 -48 -197 -83 -287 -91 l-70 -7
0 -419 0 -419 88 3 87 3 40 115 c22 63 44 121 48 127 4 7 67 31 140 54 73 23
137 44 143 46 5 2 59 -31 119 -72 82 -58 113 -75 126 -68 38 18 268 189 269
199 0 6 -16 63 -35 125 -19 63 -35 120 -35 126 0 7 39 66 86 130 48 65 88 119
89 120 0 2 64 6 140 10 l138 8 39 115 c21 63 45 136 53 162 l14 48 -107 83
-107 83 -3 151 c-2 121 0 154 12 165 8 8 57 48 110 88 53 40 96 73 96 74 0 1
-24 75 -54 166 l-53 165 -138 5 -139 5 -89 123 -90 123 37 122 c20 67 36 127
36 134 0 6 -63 57 -140 113 l-140 101 -107 -76 c-59 -41 -114 -75 -122 -75 -9
0 -77 20 -152 45 l-137 46 -44 127 -43 127 -88 3 -87 3 0 -420z"/>
<path d="M1200 3325 c-149 -67 -179 -265 -56 -372 101 -89 264 -64 334 52 l27
44 158 1 157 0 0 70 0 70 -159 0 -160 0 -23 42 c-48 87 -187 134 -278 93z
m143 -157 c26 -31 22 -82 -9 -107 -30 -24 -43 -26 -77 -10 -25 11 -47 47 -47
75 0 9 14 29 30 46 25 24 36 29 58 24 15 -4 35 -16 45 -28z"/>
<path d="M617 2816 c-57 -21 -103 -61 -127 -111 -32 -67 -26 -166 14 -224 75
-107 227 -128 325 -44 23 19 48 48 57 64 l15 29 389 0 390 0 0 -185 0 -185
218 0 217 0 -3 70 -4 69 -136 3 -137 3 -3 188 -2 187 -465 0 -464 0 -15 28
c-23 45 -75 90 -124 107 -55 18 -95 19 -145 1z m123 -156 c43 -43 9 -130 -51
-130 -43 0 -73 31 -73 75 0 66 78 101 124 55z"/>
<path d="M1078 2208 l-3 -93 -282 -3 -281 -2 -21 34 c-81 130 -238 154 -347
54 -104 -96 -93 -260 24 -342 35 -25 55 -31 112 -34 87 -5 148 21 191 82 16
22 33 47 39 54 8 9 94 12 366 12 l354 0 -2 163 -3 162 -72 3 -72 3 -3 -93z
m-731 -120 c14 -13 23 -33 23 -50 0 -36 -40 -78 -75 -78 -14 0 -37 11 -50 25
-70 69 30 170 102 103z"/>
<path d="M1414 1986 c-81 -36 -145 -151 -129 -234 33 -177 236 -252 366 -135
22 20 47 49 55 65 l15 28 320 0 320 0 -3 73 -3 72 -320 1 c-175 1 -321 6 -322
10 -11 32 -49 77 -84 101 -35 23 -55 28 -113 31 -45 1 -82 -3 -102 -12z m141
-151 c50 -49 20 -125 -49 -125 -40 0 -76 37 -76 77 0 32 42 73 75 73 14 0 37
-11 50 -25z"/>
<path d="M848 1528 l-3 -133 -97 -3 -97 -3 -17 36 c-29 61 -118 115 -190 115
-130 0 -227 -97 -226 -226 1 -120 98 -214 222 -214 86 0 147 35 196 113 l24
37 170 0 170 0 0 130 0 130 90 0 90 0 0 75 0 75 -165 0 -164 0 -3 -132z m-355
-160 c26 -31 22 -82 -9 -107 -36 -29 -60 -26 -96 9 -24 25 -29 36 -23 58 17
69 84 90 128 40z"/>
<path d="M1698 1263 l-3 -208 -71 -3 -70 -3 -25 37 c-37 57 -88 93 -149 105
-96 20 -180 -18 -234 -104 -57 -93 -32 -226 55 -288 106 -75 240 -53 319 54
l35 47 142 0 143 0 2 213 3 212 133 3 132 3 0 69 0 70 -205 0 -205 0 -2 -207z
m-308 -235 c66 -71 -37 -172 -105 -103 -30 30 -32 64 -4 99 27 34 79 36 109 4z"/>
<path d="M862 717 c-129 -47 -187 -203 -119 -320 19 -32 44 -57 80 -78 47 -27
59 -30 123 -27 58 3 79 8 113 31 23 15 50 42 61 60 35 59 29 58 198 55 l157
-3 3 -112 3 -113 169 0 170 0 0 70 0 69 -92 3 -93 3 -3 113 -3 112 -239 0
-239 0 -15 28 c-22 43 -90 99 -133 111 -48 14 -99 13 -141 -2z m138 -167 c27
-50 -11 -120 -65 -120 -32 0 -75 41 -75 72 0 30 26 67 54 77 27 10 73 -6 86
-29z"/>
</g>
</svg>
