<?xml version="1.0" standalone="no"?>
<!DOCTYPE svg PUBLIC "-//W3C//DTD SVG 20010904//EN"
 "http://www.w3.org/TR/2001/REC-SVG-20010904/DTD/svg10.dtd">
<svg version="1.0" xmlns="http://www.w3.org/2000/svg"
 width="512.000000pt" height="512.000000pt" viewBox="0 0 512.000000 512.000000"
 preserveAspectRatio="xMidYMid meet">

<g transform="translate(0.000000,512.000000) scale(0.100000,-0.100000)"
fill="#000000" stroke="none">
<path d="M2463 5106 c-82 -27 -130 -67 -368 -305 l-240 -241 295 -295 c206
-206 300 -293 310 -289 8 4 47 9 86 11 163 12 314 -78 382 -226 29 -63 42
-207 24 -259 -10 -29 -5 -34 273 -312 l283 -282 63 11 c310 54 555 -269 420
-552 -40 -83 -127 -166 -208 -198 -82 -32 -206 -32 -286 0 -110 43 -194 132
-231 244 -18 55 -21 174 -5 231 l11 39 -259 259 c-142 142 -261 258 -265 258
-5 0 -8 -310 -8 -689 l0 -688 38 -25 c60 -41 111 -99 145 -168 30 -60 32 -72
32 -165 0 -88 -3 -107 -27 -158 -56 -119 -166 -203 -300 -228 -160 -29 -331
60 -411 216 -42 81 -50 210 -19 298 29 82 83 150 158 199 l64 42 0 701 0 700
-45 24 c-60 32 -131 109 -163 179 -33 72 -42 198 -19 265 l15 44 -292 292
-291 291 -782 -782 c-884 -885 -838 -831 -838 -983 0 -156 -85 -61 1217 -1361
1292 -1290 1191 -1199 1343 -1199 155 0 56 -88 1347 1203 1291 1291 1203 1192
1203 1347 0 155 89 56 -1208 1352 -1042 1042 -1158 1155 -1211 1179 -71 32
-170 41 -233 20z"/>
</g>
</svg>
