<?xml version="1.0" standalone="no"?>
<!DOCTYPE svg PUBLIC "-//W3C//DTD SVG 20010904//EN"
 "http://www.w3.org/TR/2001/REC-SVG-20010904/DTD/svg10.dtd">
<svg version="1.0" xmlns="http://www.w3.org/2000/svg"
 width="2500.000000pt" height="2500.000000pt" viewBox="0 0 2500.000000 2500.000000"
 preserveAspectRatio="xMidYMid meet">

<g transform="translate(0.000000,2500.000000) scale(0.100000,-0.100000)"
fill="#000000" stroke="none">
<path d="M12397 23528 l-98 -92 -212 -8 c-1860 -66 -3715 -627 -5307 -1606
-461 -283 -1032 -698 -1385 -1006 -438 -382 -841 -783 -1172 -1166 -1375
-1595 -2261 -3547 -2552 -5620 -196 -1395 -125 -2784 211 -4150 399 -1623
1173 -3143 2257 -4430 389 -462 917 -986 1386 -1374 1542 -1276 3406 -2106
5380 -2395 406 -60 803 -96 1176 -109 l217 -7 101 -94 101 -93 102 94 101 93
96 2 c2358 61 4674 906 6515 2379 382 306 640 538 981 885 1381 1404 2344
3124 2820 5037 429 1728 429 3536 0 5264 -583 2343 -1902 4401 -3790 5913
-990 793 -2103 1401 -3309 1811 -1041 353 -2093 542 -3217 577 l-97 3 -100 92
c-55 51 -101 92 -103 92 -2 -1 -48 -42 -102 -92z m-1304 -1305 c-38 -43 -119
-137 -179 -209 -1314 -1575 -2221 -3459 -2693 -5589 -28 -126 -54 -240 -56
-252 l-5 -23 -2430 0 -2429 0 40 98 c206 506 506 1086 807 1559 1439 2261
3734 3845 6350 4383 229 47 582 108 631 109 l33 1 -69 -77z m3003 42 c1176
-194 2278 -583 3300 -1166 1914 -1090 3402 -2778 4250 -4821 l53 -128 -2429 0
c-2304 0 -2429 1 -2434 18 -2 9 -17 73 -31 142 -300 1417 -822 2792 -1508
3972 -396 681 -930 1427 -1390 1941 -62 69 -67 77 -45 77 14 0 119 -16 234
-35z m-1358 -307 c345 -364 566 -620 835 -971 606 -789 1109 -1660 1504 -2605
169 -406 354 -933 478 -1367 61 -212 195 -740 211 -827 l6 -38 -3272 0 -3272
0 6 38 c4 20 36 154 71 298 479 1962 1349 3660 2613 5099 134 152 572 615 582
615 4 0 111 -109 238 -242z m-4758 -6875 c0 -10 -4 -45 -10 -78 -17 -111 -69
-598 -90 -845 -107 -1288 -86 -2676 60 -3915 16 -137 32 -271 36 -297 l7 -48
-2516 0 -2515 0 -21 78 c-161 600 -269 1279 -312 1972 -15 238 -15 862 0 1100
44 695 151 1371 312 1973 l21 77 2514 0 c2388 0 2514 -1 2514 -17z m8013 -190
c107 -823 149 -1493 149 -2388 0 -895 -42 -1574 -149 -2397 l-27 -208 -3466 0
-3467 0 -31 248 c-85 652 -124 1193 -142 1935 -22 926 26 1878 142 2770 l31
247 3467 0 3466 0 27 -207z m6076 130 c130 -485 238 -1097 285 -1623 53 -581
53 -1219 0 -1800 -47 -526 -155 -1138 -285 -1622 l-21 -78 -2514 0 c-1902 0
-2514 3 -2514 12 0 6 11 99 25 207 110 872 160 1909 136 2834 -19 743 -59
1315 -136 1930 -14 109 -25 202 -25 208 0 5 940 9 2514 9 l2514 0 21 -77z
m-13904 -6195 c3 -13 28 -126 56 -253 335 -1520 903 -2936 1679 -4185 343
-551 817 -1193 1193 -1612 64 -72 67 -78 44 -78 -39 0 -429 67 -622 106 -1169
240 -2297 694 -3300 1329 -1734 1097 -3072 2687 -3861 4587 l-53 128 2429 0
2430 0 5 -22z m7605 9 c0 -7 -25 -116 -55 -242 -331 -1380 -832 -2589 -1538
-3715 -342 -547 -783 -1126 -1221 -1605 -213 -233 -441 -465 -457 -465 -17 0
-393 391 -581 605 -846 963 -1512 2037 -2016 3255 -156 375 -339 902 -457
1315 -61 212 -195 740 -211 828 l-6 37 3271 0 c2634 0 3271 -2 3271 -13z
m5878 -109 c-397 -963 -949 -1866 -1623 -2653 -1432 -1675 -3366 -2819 -5523
-3265 -206 -43 -598 -110 -640 -110 -22 0 -17 8 45 78 316 353 687 841 1002
1316 893 1348 1536 2907 1896 4596 14 69 29 133 31 143 5 16 130 17 2434 17
l2429 0 -51 -122z"/>
</g>
</svg>
