<?xml version="1.0" standalone="no"?>
<!DOCTYPE svg PUBLIC "-//W3C//DTD SVG 20010904//EN"
 "http://www.w3.org/TR/2001/REC-SVG-20010904/DTD/svg10.dtd">
<svg version="1.0" xmlns="http://www.w3.org/2000/svg"
 width="307.000000pt" height="307.000000pt" viewBox="0 0 307.000000 307.000000"
 preserveAspectRatio="xMidYMid meet">

<g transform="translate(0.000000,307.000000) scale(0.100000,-0.100000)"
fill="#000000" stroke="none">
<path d="M2037 2723 c-12 -11 -8 -40 8 -53 10 -8 15 -31 15 -69 l0 -56 -115
-115 -115 -115 0 -72 c0 -39 -4 -74 -8 -77 -7 -4 -8 -23 -3 -103 1 -16 7 -23
21 -23 18 0 20 7 20 59 0 33 -4 63 -10 66 -5 3 -10 36 -10 73 l0 66 115 116
115 117 0 62 c0 34 5 70 12 80 6 10 8 26 5 35 -6 16 -38 22 -50 9z"/>
<path d="M1143 2635 c-3 -9 2 -24 11 -34 11 -13 16 -37 16 -87 l0 -70 55 -54
55 -54 0 -83 c0 -45 -4 -85 -10 -88 -5 -3 -10 -33 -10 -66 0 -56 1 -59 25 -59
24 0 25 3 25 59 0 33 -4 63 -10 66 -5 3 -10 45 -10 93 l0 88 -55 54 -55 54 0
67 c0 47 4 70 15 79 16 14 20 36 7 44 -5 3 -8 -5 -8 -17 1 -16 -5 -22 -19 -22
-14 0 -20 6 -19 23 1 26 -4 28 -13 7z"/>
<path d="M1518 2599 c7 -9 10 -25 6 -35 -5 -18 -5 -18 6 0 10 15 9 21 -6 35
-16 14 -17 14 -6 0z"/>
<path d="M1810 2595 c-11 -13 -11 -18 0 -28 10 -9 11 -9 6 1 -4 7 -2 19 4 27
7 8 10 15 7 15 -2 0 -10 -7 -17 -15z"/>
<path d="M1851 2592 c12 -21 12 -25 -3 -36 -12 -9 -18 -27 -18 -52 0 -35 -7
-47 -55 -94 l-55 -54 0 -93 c0 -50 -4 -95 -10 -98 -5 -3 -10 -33 -10 -66 0
-56 1 -59 25 -59 24 0 25 3 25 59 0 33 -4 63 -10 66 -5 3 -10 48 -10 98 l0 93
55 54 c47 46 55 60 55 91 0 20 7 42 15 49 20 16 19 34 -2 51 -15 13 -15 12 -2
-9z"/>
<path d="M1475 2589 c-4 -6 -5 -12 -2 -15 2 -3 7 2 10 11 7 17 1 20 -8 4z"/>
<path d="M1502 2489 l-2 -66 55 -58 55 -59 0 -67 c0 -37 -4 -71 -10 -74 -5 -3
-10 -33 -10 -66 0 -56 1 -59 25 -59 24 0 25 3 25 59 0 33 -4 63 -10 66 -5 3
-10 39 -10 78 l0 73 -55 54 c-53 53 -54 54 -58 119 l-3 66 -2 -66z"/>
<path d="M1376 2504 c-15 -15 -15 -18 -1 -33 12 -14 15 -45 15 -159 0 -83 -4
-143 -10 -147 -5 -3 -10 -33 -10 -66 0 -56 1 -59 25 -59 24 0 25 3 25 59 0 33
-4 63 -10 66 -6 4 -10 62 -10 142 0 115 3 139 17 155 13 14 15 23 7 35 -15 24
-29 26 -48 7z"/>
<path d="M1480 2275 c-10 -13 -10 -19 4 -33 18 -20 22 -67 6 -77 -5 -3 -10
-33 -10 -66 0 -56 1 -59 25 -59 24 0 25 3 25 59 0 33 -4 63 -10 66 -15 9 -12
56 5 75 9 10 13 25 9 34 -8 20 -38 21 -54 1z"/>
<path d="M1215 1976 c-16 -7 -39 -23 -50 -36 -19 -21 -20 -38 -23 -356 -3
-374 -1 -388 63 -418 46 -22 657 -24 709 -2 67 28 66 24 66 399 0 377 -2 386
-65 413 -48 20 -655 20 -700 0z"/>
<path d="M524 1965 c-7 -17 12 -45 31 -45 7 0 18 7 25 15 8 10 31 15 69 15 55
0 58 -1 111 -55 l54 -55 71 0 c39 0 76 -5 82 -11 5 -5 37 -9 69 -7 51 3 59 6
59 23 0 17 -8 20 -59 23 -32 2 -64 -2 -69 -7 -6 -6 -43 -11 -82 -11 l-71 0
-54 55 c-53 54 -56 55 -110 55 -31 0 -61 5 -66 10 -7 7 -10 4 -10 -12 1 -17
-5 -23 -19 -23 -14 0 -20 6 -19 23 1 26 -4 28 -12 7z"/>
<path d="M2030 1845 c0 -24 3 -25 59 -25 33 0 63 5 66 10 4 6 88 10 218 10
l213 0 52 -53 c29 -29 52 -60 52 -69 0 -8 7 -21 16 -28 12 -11 18 -10 32 4 21
20 5 52 -24 48 -12 -1 -39 18 -74 53 l-54 55 -213 0 c-130 0 -214 4 -218 10
-3 6 -33 10 -66 10 -56 0 -59 -1 -59 -25z"/>
<path d="M424 1745 c-7 -17 12 -45 31 -45 7 0 18 7 25 15 10 13 51 15 246 15
144 0 235 -4 239 -10 3 -5 33 -10 66 -10 51 0 59 3 59 19 0 18 -12 18 -299 13
-217 -3 -300 -2 -305 7 -10 16 -56 14 -62 -4z"/>
<path d="M2030 1730 c0 -18 7 -20 64 -20 46 0 65 4 69 14 9 22 -2 26 -70 26
-56 0 -63 -2 -63 -20z"/>
<path d="M2203 1733 c9 -2 25 -2 35 0 9 3 1 5 -18 5 -19 0 -27 -2 -17 -5z"/>
<path d="M2378 1733 c18 -2 45 -2 60 0 15 2 0 4 -33 4 -33 0 -45 -2 -27 -4z"/>
<path d="M2590 1624 c58 -58 114 -110 125 -116 11 -5 -32 42 -95 106 -63 64
-119 116 -125 116 -5 0 38 -48 95 -106z"/>
<path d="M965 1640 c-4 -6 -94 -10 -238 -10 l-233 0 -59 -60 c-33 -33 -55 -60
-50 -60 6 0 33 25 61 55 l51 55 231 0 c143 0 233 -4 237 -10 3 -5 33 -10 66
-10 56 0 59 1 59 25 0 24 -3 25 -59 25 -33 0 -63 -4 -66 -10z"/>
<path d="M2030 1625 c0 -24 2 -25 65 -25 37 0 65 4 65 10 0 6 44 10 112 10
l112 0 43 -42 c26 -26 44 -52 44 -68 2 -25 2 -25 6 -1 4 18 -7 35 -43 72 l-48
49 -113 0 c-64 0 -114 4 -118 10 -3 6 -33 10 -66 10 -56 0 -59 -1 -59 -25z"/>
<path d="M160 1526 c13 -16 12 -20 -5 -32 -10 -8 -14 -14 -8 -14 6 0 16 7 23
16 11 12 10 18 -5 32 -18 16 -18 16 -5 -2z"/>
<path d="M537 1533 c-13 -12 -7 -44 8 -50 9 -3 24 2 33 11 15 13 50 16 193 19
l174 3 -177 2 c-105 1 -179 6 -183 12 -7 11 -38 13 -48 3z"/>
<path d="M2251 1527 c-9 -12 -8 -18 5 -31 23 -24 49 -16 49 14 0 29 -34 40
-54 17z"/>
<path d="M2880 1525 c-10 -12 -10 -18 0 -30 20 -25 55 -15 55 15 0 30 -35 40
-55 15z"/>
<path d="M110 1511 c0 -11 4 -22 9 -25 4 -3 6 6 3 19 -5 30 -12 33 -12 6z"/>
<path d="M957 1523 c-17 -17 19 -33 74 -33 52 0 59 2 59 20 0 18 -7 20 -63 20
-35 0 -67 -3 -70 -7z"/>
<path d="M2030 1510 c0 -18 7 -20 64 -20 46 0 65 4 69 14 9 22 -2 26 -70 26
-56 0 -63 -2 -63 -20z"/>
<path d="M2193 1513 c9 -2 23 -2 30 0 6 3 -1 5 -18 5 -16 0 -22 -2 -12 -5z"/>
<path d="M2768 1503 c17 -2 47 -2 65 0 17 2 3 4 -33 4 -36 0 -50 -2 -32 -4z"/>
<path d="M714 1415 c-8 -21 2 -45 19 -45 8 0 20 7 27 15 9 11 35 15 106 15 51
0 96 -4 99 -10 3 -5 33 -10 66 -10 57 0 68 7 57 36 -4 9 -119 11 -124 2 -7
-12 -192 -10 -199 2 -9 15 -45 12 -51 -5z"/>
<path d="M2030 1403 c0 -22 4 -23 65 -23 37 0 65 4 65 10 0 6 39 10 97 10 72
0 101 -4 113 -15 21 -19 50 -9 50 16 0 25 -27 36 -51 21 -20 -13 -201 -17
-213 -5 -4 4 -34 8 -67 8 -55 0 -59 -1 -59 -22z"/>
<path d="M964 1308 c-3 -4 -65 -8 -137 -8 l-133 0 -54 -55 c-50 -51 -57 -54
-109 -58 l-56 -3 60 -2 61 -2 54 55 54 55 128 0 c74 0 129 -4 133 -10 3 -5 33
-10 66 -10 52 0 59 2 59 20 0 16 -7 20 -32 21 -18 0 -46 2 -61 3 -16 1 -31 -2
-33 -6z"/>
<path d="M2037 1313 c-4 -3 -7 -15 -7 -25 0 -16 9 -18 65 -18 37 0 65 4 65 10
0 6 15 10 33 10 26 0 43 -11 87 -55 l54 -55 71 0 c39 0 75 -4 81 -9 5 -6 9 0
10 17 1 15 -1 21 -3 15 -3 -9 -28 -13 -77 -13 l-72 0 -53 54 -53 54 -82 7
c-44 3 -88 8 -97 11 -8 2 -18 1 -22 -3z"/>
<path d="M407 1203 c-13 -12 -7 -41 9 -47 24 -9 57 23 43 41 -12 14 -41 18
-52 6z"/>
<path d="M2536 1195 c4 -8 0 -23 -7 -33 -13 -15 -12 -16 4 -3 19 15 22 36 7
46 -6 3 -7 -1 -4 -10z"/>
<path d="M1260 1041 c0 -33 5 -63 10 -66 6 -3 10 -33 10 -65 0 -32 -4 -62 -10
-65 -12 -7 -13 -42 -2 -49 4 -2 8 7 7 21 0 34 22 41 34 11 6 -15 10 -17 10 -7
1 9 -6 22 -14 29 -17 14 -22 120 -5 120 6 0 10 28 10 65 0 63 -1 65 -25 65
-24 0 -25 -3 -25 -59z"/>
<path d="M1370 1041 c0 -33 5 -63 10 -66 6 -3 10 -48 10 -98 l0 -93 -55 -54
-55 -54 0 -66 c0 -36 -5 -71 -11 -77 -6 -6 -9 -19 -6 -29 4 -15 5 -14 6 4 1
17 6 22 19 20 10 -2 17 -12 16 -25 0 -12 3 -20 8 -17 13 8 9 30 -7 44 -10 9
-15 31 -15 74 1 61 1 61 60 125 60 65 60 65 60 126 0 34 3 103 6 153 l7 92
-27 0 c-25 0 -26 -2 -26 -59z"/>
<path d="M1497 880 c5 -171 3 -226 -7 -245 -16 -29 -7 -55 19 -55 27 0 39 39
17 55 -14 10 -16 36 -16 174 0 101 4 161 10 161 6 0 10 28 10 65 0 58 -2 65
-20 65 -19 0 -19 -6 -13 -220z"/>
<path d="M1600 1036 c0 -36 5 -68 10 -71 6 -3 10 -51 10 -108 l0 -103 55 -54
c54 -54 55 -55 55 -113 0 -38 -6 -69 -17 -88 -13 -22 -14 -32 -6 -40 9 -9 11
-7 6 9 -3 15 0 24 11 28 13 5 16 21 16 83 l0 77 -56 54 -56 55 6 168 c7 163 6
167 -14 167 -18 0 -20 -6 -20 -64z"/>
<path d="M1715 968 l7 -133 54 -55 54 -56 0 -186 c0 -114 -4 -189 -10 -193
-16 -10 -12 -42 6 -49 19 -7 44 10 44 29 0 7 -7 18 -15 25 -12 10 -15 45 -15
199 l0 187 -55 54 c-54 53 -55 55 -55 112 0 31 5 60 10 63 6 3 10 35 10 71 0
58 -2 64 -21 64 -21 0 -21 -2 -14 -132z"/>
<path d="M1820 1041 c0 -74 7 -96 26 -80 9 8 14 33 14 75 0 57 -2 64 -20 64
-18 0 -20 -7 -20 -59z"/>
<path d="M1832 920 c0 -14 2 -19 5 -12 2 6 2 18 0 25 -3 6 -5 1 -5 -13z"/>
<path d="M1840 881 c0 -4 35 -41 78 -84 l77 -77 126 0 c100 0 129 -3 139 -15
7 -8 17 -15 23 -15 6 0 2 6 -8 14 -12 9 -16 19 -11 32 6 15 5 17 -5 7 -9 -9
-52 -13 -139 -13 l-127 0 -76 79 c-42 43 -77 76 -77 72z"/>
<path d="M1753 474 c0 -17 2 -22 7 -13 5 6 6 18 3 26 -8 19 -10 16 -10 -13z"/>
</g>
</svg>
