<svg width="31" height="30" viewBox="0 0 31 30" fill="none" xmlns="http://www.w3.org/2000/svg">
<g id="teenyicons:github-solid" clip-path="url(#clip0_31_209)">
<path id="Vector" d="M19.4831 7.37645C17.2958 6.8682 15.0211 6.8682 12.8338 7.37645C11.5706 6.60166 10.6061 6.24557 9.90465 6.09527C9.60528 6.0277 9.29895 5.99587 8.99208 6.00043C8.85244 6.00421 8.71347 6.02099 8.57694 6.05053L8.55905 6.05411L8.55189 6.05769H8.54652L8.79167 6.91837L8.54652 6.05948C8.42081 6.095 8.30441 6.15763 8.20549 6.24295C8.10656 6.32827 8.02753 6.43421 7.97393 6.55334C7.44602 7.73559 7.34544 9.06457 7.68942 10.3128C6.79856 11.3924 6.31308 12.7495 6.31697 14.1492C6.31697 16.9281 7.1365 18.7962 8.534 19.9969C9.51278 20.8379 10.7009 21.2852 11.8926 21.5411C11.7051 22.0919 11.6344 22.6757 11.6851 23.2553V24.3253C10.9568 24.4774 10.4522 24.4291 10.0925 24.311C9.6434 24.1625 9.29806 23.8637 8.96702 23.4342C8.79398 23.2027 8.63273 22.9627 8.4839 22.7149L8.3819 22.5485C8.25311 22.3343 8.11947 22.1231 7.98108 21.9151C7.6411 21.4122 7.1365 20.7824 6.32055 20.5677L5.4545 20.3404L5 22.0725L5.86605 22.2998C6.0092 22.3356 6.1953 22.4698 6.50128 22.9189C6.61905 23.0962 6.73241 23.2764 6.84126 23.4593L6.96293 23.6561C7.13113 23.9281 7.32439 24.2287 7.54806 24.5222C8.00077 25.1126 8.6181 25.7085 9.53425 26.0109C10.1605 26.2185 10.8727 26.2686 11.6851 26.1433V29.4841C11.6851 29.7214 11.7793 29.9489 11.9471 30.1167C12.1149 30.2845 12.3425 30.3788 12.5798 30.3788H19.7372C19.9745 30.3788 20.2021 30.2845 20.3699 30.1167C20.5376 29.9489 20.6319 29.7214 20.6319 29.4841V23.1086C20.6319 22.5449 20.6069 22.0278 20.4476 21.5464C21.6339 21.2959 22.8131 20.8486 23.7866 20.0076C25.1823 18.798 26 16.912 26 14.117V14.1152C25.9955 12.7269 25.5098 11.3832 24.6258 10.3128C24.9693 9.06513 24.8687 7.73686 24.3413 6.55513C24.2881 6.43586 24.2094 6.32968 24.1108 6.24406C24.0122 6.15843 23.896 6.09543 23.7704 6.05948L23.5253 6.91837C23.7704 6.05948 23.7687 6.05948 23.7669 6.05948L23.7633 6.05769L23.7561 6.05411L23.74 6.05053C23.6958 6.03904 23.651 6.03008 23.6058 6.02369C23.5122 6.01002 23.4177 6.00225 23.3231 6.00043C23.0162 5.9959 22.7099 6.02773 22.4105 6.09527C21.7109 6.24557 20.7464 6.60166 19.4831 7.37645Z" fill="#ECECEC"/>
</g>
<defs>
<clipPath id="clip0_31_209">
<rect width="30" height="30" fill="white" transform="translate(0.996582)"/>
</clipPath>
</defs>
</svg>
